<svg width="270" height="56" viewBox="0 0 270 56" fill="none" xmlns="http://www.w3.org/2000/svg">
<path d="M10.9838 22.238L36.1041 11.0552" stroke="#82C2EB" stroke-width="0.9073" stroke-miterlimit="10"/>
<path d="M65.2331 32.5659H61.7645V27.7251H58.1569V32.5659H54.6884V20.3237H58.1569V24.8864H61.7645V20.3237H65.2331V32.5659Z" fill="white"/>
<path d="M66.3273 26.5364C66.3273 25.4505 66.4929 24.4995 66.8283 23.6855C67.1617 22.8716 67.5993 22.1926 68.1434 21.6486C68.6853 21.1045 69.3111 20.6935 70.0167 20.4153C70.7223 20.1372 71.4483 19.9961 72.1927 19.9961C73.9311 19.9961 75.3034 20.5278 76.3137 21.5913C77.3219 22.6548 77.8271 24.2172 77.8271 26.2808C77.8271 26.4812 77.8189 26.7041 77.8046 26.9434C77.7882 27.1847 77.7739 27.3974 77.7575 27.5835H69.8899C69.9676 28.2973 70.301 28.8638 70.89 29.2831C71.479 29.7023 72.2704 29.9109 73.2644 29.9109C73.9004 29.9109 74.5242 29.8536 75.1377 29.7371C75.7513 29.6205 76.2503 29.4773 76.6388 29.3055L77.1051 32.1217C76.919 32.2158 76.6716 32.3078 76.3607 32.4019C76.0498 32.4939 75.7042 32.5757 75.3238 32.6452C74.9434 32.7148 74.5364 32.7741 74.1029 32.8191C73.6693 32.8661 73.2337 32.8886 72.8001 32.8886C71.6978 32.8886 70.7407 32.725 69.9267 32.3998C69.1127 32.0747 68.4379 31.6268 67.902 31.0623C67.3662 30.4958 66.9715 29.825 66.7158 29.0499C66.4561 28.2748 66.3273 27.4363 66.3273 26.5364ZM74.473 25.2112C74.4567 24.9167 74.4076 24.6283 74.3217 24.3502C74.2358 24.0721 74.1049 23.8225 73.927 23.6058C73.7491 23.389 73.5241 23.2111 73.2521 23.0699C72.9801 22.9309 72.6426 22.8593 72.2397 22.8593C71.8512 22.8593 71.5178 22.9268 71.2397 23.0577C70.9595 23.1906 70.7284 23.3644 70.5423 23.5812C70.3562 23.798 70.213 24.0495 70.1108 24.3379C70.0106 24.6242 69.9369 24.9167 69.8899 25.2112H74.473Z" fill="white"/>
<path d="M90.0671 20.3236V32.5658H86.576C86.576 31.7907 86.5842 31.0176 86.5985 30.2507C86.6128 29.4817 86.6292 28.7721 86.6456 28.1217C86.6619 27.4714 86.6803 26.9008 86.7028 26.4099C86.7253 25.9212 86.7376 25.5612 86.7376 25.3281C86.2877 25.9641 85.8377 26.6083 85.3878 27.2607C84.9379 27.9111 84.5063 28.5533 84.0953 29.1811C83.6842 29.809 83.2956 30.4102 82.9316 30.9849C82.5655 31.5596 82.2444 32.0872 81.9663 32.5678H78.917V20.3257H82.3855C82.3855 21.1008 82.3814 21.8432 82.3753 22.5487C82.3671 23.2543 82.3549 23.8944 82.3405 24.4691C82.3262 25.0438 82.3099 25.5428 82.2935 25.9702C82.2771 26.3977 82.271 26.7269 82.271 26.9601C83.2015 25.5939 84.0605 24.3689 84.8438 23.2829C85.6271 22.197 86.392 21.2112 87.1364 20.3277H90.0671V20.3236ZM84.5268 18.6466C84.0298 18.6466 83.5533 18.573 83.0952 18.4257C82.6371 18.2785 82.2219 18.0617 81.8497 17.7754C81.4775 17.487 81.1707 17.1394 80.9314 16.7283C80.6901 16.3172 80.547 15.8489 80.4999 15.3212L82.8968 14.6934C83.0216 15.2824 83.2261 15.7016 83.5145 15.9511C83.8028 16.1986 84.1382 16.3234 84.5268 16.3234C84.9297 16.3234 85.2753 16.2109 85.5637 15.9859C85.85 15.7609 86.0566 15.3376 86.1813 14.7179L88.5557 15.3458C88.5087 15.8734 88.3655 16.3438 88.1242 16.7549C87.8829 17.1659 87.5802 17.5116 87.2162 17.7897C86.8521 18.0699 86.4369 18.2826 85.9707 18.4298C85.5064 18.573 85.0238 18.6466 84.5268 18.6466Z" fill="white"/>
<path d="M103.123 26.4448C103.123 27.3917 103.007 28.2527 102.773 29.0278C102.54 29.8029 102.199 30.4717 101.749 31.03C101.299 31.5883 100.741 32.0239 100.074 32.3328C99.4072 32.6436 98.6382 32.797 97.769 32.797C97.2884 32.797 96.8385 32.75 96.4193 32.6579C96 32.5639 95.5971 32.433 95.2085 32.2612V36.8689H91.74V20.7389C92.0509 20.6469 92.4067 20.5569 92.8116 20.471C93.2145 20.3851 93.6379 20.3115 94.0796 20.2501C94.5214 20.1888 94.9713 20.1376 95.4294 20.0988C95.8875 20.0599 96.3252 20.0415 96.7444 20.0415C97.7527 20.0415 98.6525 20.1928 99.444 20.4955C100.235 20.7982 100.902 21.2256 101.446 21.7758C101.988 22.3259 102.403 22.9967 102.692 23.7882C102.98 24.5817 103.123 25.4673 103.123 26.4448ZM99.5851 26.5369C99.5851 25.4672 99.3438 24.6083 98.8632 23.9661C98.3826 23.3219 97.6688 23.0008 96.7219 23.0008C96.4111 23.0008 96.1248 23.0131 95.8609 23.0356C95.5971 23.0581 95.3803 23.0867 95.2085 23.1174V29.3775C95.4253 29.5166 95.7096 29.6332 96.0593 29.7273C96.409 29.8213 96.7608 29.8663 97.1187 29.8663C98.763 29.8643 99.5851 28.7558 99.5851 26.5369Z" fill="white"/>
<path d="M115.668 26.4199C115.668 27.3811 115.529 28.2625 115.249 29.0622C114.969 29.8618 114.566 30.5449 114.038 31.1093C113.511 31.6758 112.879 32.1135 112.14 32.4244C111.404 32.7352 110.578 32.8906 109.662 32.8906C108.762 32.8906 107.944 32.7352 107.205 32.4244C106.469 32.1135 105.835 31.6758 105.308 31.1093C104.78 30.5428 104.369 29.8618 104.074 29.0622C103.78 28.2625 103.633 27.3831 103.633 26.4199C103.633 25.4587 103.784 24.5813 104.087 23.7898C104.389 22.9983 104.809 22.3235 105.344 21.7651C105.88 21.2068 106.516 20.7712 107.252 20.4624C107.989 20.1515 108.792 19.9961 109.662 19.9961C110.545 19.9961 111.357 20.1515 112.093 20.4624C112.83 20.7733 113.464 21.2068 113.991 21.7651C114.519 22.3235 114.93 22.9983 115.224 23.7898C115.521 24.5813 115.668 25.4587 115.668 26.4199ZM112.13 26.4199C112.13 25.3482 111.917 24.5076 111.49 23.8941C111.063 23.2806 110.455 22.9738 109.664 22.9738C108.872 22.9738 108.259 23.2806 107.825 23.8941C107.392 24.5076 107.175 25.3482 107.175 26.4199C107.175 27.4915 107.392 28.3402 107.825 28.9681C108.259 29.596 108.872 29.9109 109.664 29.9109C110.455 29.9109 111.065 29.596 111.49 28.9681C111.917 28.3402 112.13 27.4915 112.13 26.4199Z" fill="white"/>
<path d="M126.65 23.1624H122.74V32.5659H119.272V23.1624H115.361V20.3237H126.648V23.1624H126.65Z" fill="white"/>
<path d="M138.545 26.4448C138.545 27.3917 138.428 28.2527 138.195 29.0278C137.962 29.8029 137.621 30.4717 137.171 31.03C136.721 31.5883 136.162 32.0239 135.496 32.3328C134.829 32.6436 134.06 32.797 133.191 32.797C132.71 32.797 132.26 32.75 131.841 32.6579C131.422 32.5639 131.019 32.433 130.63 32.2612V36.8689H127.162V20.7389C127.473 20.6469 127.828 20.5569 128.233 20.471C128.636 20.3851 129.06 20.3115 129.501 20.2501C129.943 20.1888 130.393 20.1376 130.851 20.0988C131.309 20.0599 131.747 20.0415 132.166 20.0415C133.174 20.0415 134.074 20.1928 134.866 20.4955C135.657 20.7982 136.324 21.2256 136.868 21.7758C137.41 22.3259 137.825 22.9967 138.113 23.7882C138.4 24.5817 138.545 25.4673 138.545 26.4448ZM135.007 26.5369C135.007 25.4672 134.766 24.6083 134.285 23.9661C133.804 23.3219 133.091 23.0008 132.144 23.0008C131.833 23.0008 131.547 23.0131 131.283 23.0356C131.019 23.0581 130.802 23.0867 130.63 23.1174V29.3775C130.847 29.5166 131.131 29.6332 131.481 29.7273C131.831 29.8213 132.183 29.8663 132.54 29.8663C134.183 29.8643 135.007 28.7558 135.007 26.5369Z" fill="white"/>
<path d="M139.056 26.5364C139.056 25.4505 139.222 24.4995 139.557 23.6855C139.891 22.8716 140.328 22.1926 140.872 21.6486C141.414 21.1045 142.04 20.6935 142.746 20.4153C143.451 20.1372 144.177 19.9961 144.922 19.9961C146.66 19.9961 148.032 20.5278 149.043 21.5913C150.051 22.6548 150.556 24.2172 150.556 26.2808C150.556 26.4812 150.548 26.7041 150.534 26.9434C150.517 27.1847 150.503 27.3974 150.487 27.5835H142.619C142.697 28.2973 143.03 28.8638 143.619 29.2831C144.208 29.7023 144.999 29.9109 145.993 29.9109C146.629 29.9109 147.253 29.8536 147.867 29.7371C148.48 29.6205 148.979 29.4773 149.368 29.3055L149.834 32.1217C149.648 32.2158 149.401 32.3078 149.09 32.4019C148.779 32.4939 148.433 32.5757 148.053 32.6452C147.672 32.7148 147.265 32.7741 146.832 32.8191C146.398 32.8661 145.963 32.8886 145.529 32.8886C144.427 32.8886 143.47 32.725 142.656 32.3998C141.842 32.0747 141.167 31.6268 140.631 31.0623C140.095 30.4958 139.7 29.825 139.445 29.0499C139.183 28.2748 139.056 27.4363 139.056 26.5364ZM147.202 25.2112C147.186 24.9167 147.137 24.6283 147.051 24.3502C146.965 24.0721 146.834 23.8225 146.656 23.6058C146.478 23.389 146.253 23.2111 145.981 23.0699C145.709 22.9309 145.372 22.8593 144.969 22.8593C144.58 22.8593 144.247 22.9268 143.969 23.0577C143.689 23.1906 143.457 23.3644 143.271 23.5812C143.085 23.798 142.942 24.0495 142.842 24.3379C142.742 24.6242 142.668 24.9167 142.621 25.2112H147.202Z" fill="white"/>
<path d="M162.191 32.5659H158.722V27.7251H155.115V32.5659H151.646V20.3237H155.115V24.8864H158.722V20.3237H162.191V32.5659Z" fill="white"/>
<path d="M168.265 19.9961C169.29 19.9961 170.142 20.1127 170.825 20.3458C171.508 20.5789 172.055 20.9123 172.466 21.3459C172.877 21.7815 173.167 22.3071 173.339 22.9288C173.509 23.5485 173.595 24.2397 173.595 25.0005V32.2158C173.098 32.3242 172.408 32.453 171.523 32.6003C170.639 32.7475 169.568 32.8211 168.312 32.8211C167.52 32.8211 166.803 32.7516 166.158 32.6105C165.514 32.4714 164.96 32.2423 164.494 31.9233C164.027 31.6063 163.672 31.1912 163.422 30.6778C163.175 30.1665 163.05 29.5366 163.05 28.7922C163.05 28.0785 163.193 27.4731 163.481 26.9761C163.768 26.4792 164.152 26.0844 164.633 25.7899C165.113 25.4955 165.664 25.2828 166.285 25.1498C166.907 25.0169 167.549 24.9514 168.218 24.9514C168.668 24.9514 169.069 24.9719 169.416 25.0087C169.766 25.0476 170.048 25.0987 170.267 25.1601V24.8349C170.267 24.2459 170.089 23.7714 169.731 23.4156C169.373 23.0597 168.754 22.8797 167.87 22.8797C167.281 22.8797 166.698 22.9227 166.124 23.0086C165.549 23.0945 165.052 23.2151 164.635 23.3685L164.193 20.5749C164.393 20.5135 164.647 20.446 164.95 20.3765C165.252 20.307 165.582 20.2435 165.94 20.1904C166.295 20.1352 166.672 20.0902 167.068 20.0513C167.461 20.0165 167.862 19.9961 168.265 19.9961ZM168.545 30.144C168.887 30.144 169.212 30.1359 169.523 30.1216C169.834 30.1072 170.081 30.0827 170.267 30.052V27.422C170.128 27.3913 169.917 27.3606 169.639 27.3299C169.359 27.2993 169.103 27.2829 168.87 27.2829C168.545 27.2829 168.238 27.3033 167.952 27.3422C167.664 27.3811 167.412 27.4547 167.195 27.5631C166.979 27.6715 166.807 27.8187 166.684 28.0048C166.559 28.191 166.498 28.4241 166.498 28.7022C166.498 29.2462 166.68 29.6205 167.044 29.8311C167.408 30.0397 167.907 30.144 168.545 30.144Z" fill="white"/>
<path d="M173.758 32.5659C174.535 31.3061 175.337 30.1486 176.161 29.0912C176.985 28.0339 177.865 27.0093 178.797 26.0133C177.818 25.0071 176.926 24.0193 176.126 23.0519C175.325 22.0846 174.613 21.1745 173.991 20.3237H178.049C178.452 20.8943 178.936 21.5529 179.501 22.3014C180.065 23.0499 180.806 23.9948 181.72 25.1359V20.3237H185.094V25.1523C186.041 24.0234 186.794 23.0744 187.352 22.3095C187.91 21.5426 188.391 20.8821 188.796 20.3237H192.798C192.226 21.2072 191.553 22.1153 190.778 23.0519C190.005 23.9886 189.099 24.9682 188.062 25.9908C188.618 26.5818 189.117 27.1361 189.559 27.6576C190 28.1791 190.418 28.6945 190.812 29.2078C191.207 29.7211 191.581 30.2529 191.939 30.805C192.295 31.3572 192.667 31.9442 193.054 32.5659H189.197C188.031 30.8071 186.665 28.9542 185.094 27.0093V32.5659H181.72V27.0502C180.928 28.1014 180.176 29.0892 179.462 30.0156C178.748 30.9421 178.137 31.7928 177.623 32.5639H173.758V32.5659Z" fill="white"/>
<path d="M192.424 26.5364C192.424 25.4505 192.59 24.4995 192.925 23.6855C193.259 22.8716 193.696 22.1926 194.24 21.6486C194.782 21.1045 195.408 20.6935 196.114 20.4153C196.819 20.1372 197.545 19.9961 198.29 19.9961C200.028 19.9961 201.4 20.5278 202.41 21.5913C203.419 22.6548 203.924 24.2172 203.924 26.2808C203.924 26.4812 203.916 26.7041 203.901 26.9434C203.885 27.1847 203.871 27.3974 203.854 27.5835H195.989C196.066 28.2973 196.4 28.8638 196.989 29.2831C197.578 29.7023 198.369 29.9109 199.363 29.9109C199.999 29.9109 200.623 29.8536 201.237 29.7371C201.85 29.6205 202.349 29.4773 202.738 29.3055L203.204 32.1217C203.018 32.2158 202.77 32.3078 202.46 32.4019C202.149 32.4939 201.803 32.5757 201.423 32.6452C201.042 32.7148 200.635 32.7741 200.202 32.8191C199.768 32.8661 199.333 32.8886 198.899 32.8886C197.797 32.8886 196.84 32.725 196.026 32.3998C195.212 32.0747 194.537 31.6268 194.001 31.0623C193.465 30.4958 193.07 29.825 192.815 29.0499C192.551 28.2748 192.424 27.4363 192.424 26.5364ZM200.57 25.2112C200.553 24.9167 200.504 24.6283 200.419 24.3502C200.333 24.0721 200.202 23.8225 200.024 23.6058C199.846 23.389 199.621 23.2111 199.349 23.0699C199.077 22.9309 198.739 22.8593 198.337 22.8593C197.948 22.8593 197.615 22.9268 197.336 23.0577C197.056 23.1906 196.825 23.3644 196.639 23.5812C196.453 23.798 196.31 24.0495 196.208 24.3379C196.107 24.6242 196.034 24.9167 195.987 25.2112H200.57Z" fill="white"/>
<path d="M216.397 26.4448C216.397 27.3917 216.281 28.2527 216.047 29.0278C215.814 29.8029 215.473 30.4717 215.023 31.03C214.573 31.5883 214.015 32.0239 213.348 32.3328C212.681 32.6436 211.912 32.797 211.043 32.797C210.562 32.797 210.112 32.75 209.693 32.6579C209.274 32.5639 208.871 32.433 208.482 32.2612V36.8689H205.014V20.7389C205.325 20.6469 205.681 20.5569 206.086 20.471C206.488 20.3851 206.912 20.3115 207.354 20.2501C207.795 20.1888 208.245 20.1376 208.703 20.0988C209.161 20.0599 209.599 20.0415 210.018 20.0415C211.027 20.0415 211.926 20.1928 212.718 20.4955C213.509 20.7982 214.176 21.2256 214.72 21.7758C215.262 22.3259 215.677 22.9967 215.966 23.7882C216.252 24.5817 216.397 25.4673 216.397 26.4448ZM212.859 26.5369C212.859 25.4672 212.618 24.6083 212.137 23.9661C211.657 23.3219 210.943 23.0008 209.996 23.0008C209.685 23.0008 209.399 23.0131 209.135 23.0356C208.871 23.0581 208.654 23.0867 208.482 23.1174V29.3775C208.699 29.5166 208.984 29.6332 209.333 29.7273C209.683 29.8213 210.035 29.8663 210.393 29.8663C212.035 29.8643 212.859 28.7558 212.859 26.5369Z" fill="white"/>
<path d="M220.958 24.6758C221.175 24.6144 221.459 24.5633 221.809 24.5244C222.158 24.4856 222.557 24.4672 223.007 24.4672C223.721 24.4672 224.392 24.5531 225.02 24.7228C225.647 24.8946 226.195 25.1543 226.66 25.502C227.126 25.8517 227.494 26.2935 227.766 26.8293C228.038 27.3651 228.173 27.9889 228.173 28.7026C228.173 29.4164 228.048 30.034 227.801 30.5535C227.553 31.073 227.196 31.5004 226.729 31.8338C226.265 32.1671 225.709 32.4146 225.065 32.5782C224.42 32.7418 223.702 32.8215 222.911 32.8215C221.886 32.8215 220.948 32.7704 220.095 32.6702C219.242 32.57 218.373 32.4105 217.487 32.1937V20.3237H220.956V24.6758H220.958ZM222.68 30.1445C223.316 30.1445 223.817 30.0238 224.181 29.7825C224.545 29.5432 224.727 29.1505 224.727 28.6065C224.727 28.3284 224.666 28.0912 224.541 27.8969C224.416 27.7026 224.246 27.5471 224.03 27.4306C223.813 27.314 223.561 27.2322 223.273 27.1872C222.987 27.1402 222.68 27.1177 222.355 27.1177C222.122 27.1177 221.866 27.134 221.586 27.1647C221.308 27.1954 221.097 27.2281 220.958 27.2588V30.0524C221.144 30.0831 221.391 30.1077 221.702 30.122C222.013 30.1363 222.338 30.1445 222.68 30.1445ZM233.409 32.5659H229.94V20.3237H233.409V32.5659Z" fill="white"/>
<path d="M253.103 26.1421C253.103 27.089 252.987 27.95 252.753 28.7251C252.52 29.5002 252.179 30.169 251.729 30.7273C251.279 31.2856 250.721 31.7212 250.054 32.03C249.387 32.3409 248.618 32.4943 247.749 32.4943C247.268 32.4943 246.818 32.4472 246.399 32.3552C245.98 32.2611 245.577 32.1302 245.189 31.9584V36.5661H241.72V20.4362C242.031 20.3441 242.387 20.2541 242.792 20.1682C243.195 20.0823 243.618 20.0087 244.06 19.9474C244.501 19.886 244.951 19.8349 245.409 19.796C245.868 19.7572 246.305 19.7388 246.724 19.7388C247.733 19.7388 248.633 19.8901 249.424 20.1928C250.215 20.4955 250.882 20.9229 251.426 21.473C251.968 22.0232 252.383 22.694 252.672 23.4854C252.958 24.281 253.103 25.1645 253.103 26.1421ZM249.565 26.2362C249.565 25.1666 249.324 24.3076 248.843 23.6654C248.363 23.0212 247.649 22.7001 246.702 22.7001C246.391 22.7001 246.105 22.7124 245.841 22.7349C245.577 22.7574 245.36 22.786 245.189 22.8167V29.0769C245.405 29.2159 245.69 29.3325 246.039 29.4266C246.389 29.5206 246.741 29.5656 247.099 29.5656C248.741 29.5636 249.565 28.4551 249.565 26.2362Z" fill="url(#paint0_linear_900_1127)"/>
<path d="M239.585 30.4249C239.585 31.6008 238.632 32.5539 237.456 32.5539C236.28 32.5539 235.329 31.6008 235.329 30.4249C235.329 29.2489 236.282 28.2959 237.456 28.2959C238.632 28.2959 239.585 29.251 239.585 30.4249Z" fill="#76C591"/>
<path d="M268.055 21.8369C267.458 21.3399 266.763 20.9534 265.973 20.6732C265.182 20.395 264.351 20.2151 263.482 20.1374V16.9102H260.108V20.1374C258.991 20.2621 258.022 20.4973 257.2 20.847C256.377 21.1968 255.703 21.6385 255.175 22.1723C254.647 22.7081 254.257 23.3175 253.999 23.9986C253.743 24.6816 253.615 25.4118 253.615 26.1869C253.615 26.9927 253.749 27.7555 254.021 28.4672C254.293 29.1809 254.7 29.8088 255.242 30.3528C255.784 30.8948 256.465 31.3386 257.279 31.6781C258.093 32.0196 259.036 32.2302 260.108 32.3059V36.5659H263.482V32.3059C264.366 32.2282 265.204 32.0544 265.996 31.7824C266.787 31.5104 267.476 31.1279 268.067 30.631C268.656 30.134 269.127 29.5225 269.477 28.7924C269.826 28.0643 270 27.2013 270 26.2094C270 25.2318 269.826 24.3831 269.477 23.6611C269.127 22.9412 268.652 22.3338 268.055 21.8369ZM260.108 29.3773C259.13 29.2689 258.386 28.9744 257.875 28.4938C257.363 28.0132 257.106 27.2606 257.106 26.236C257.106 25.1664 257.373 24.381 257.909 23.8861C258.445 23.3891 259.177 23.1028 260.108 23.0251V29.3773ZM266.217 27.7248C266.039 28.1277 265.806 28.4508 265.519 28.6901C265.231 28.9314 264.91 29.1053 264.554 29.2137C264.198 29.3221 263.84 29.3773 263.482 29.3773V23.023C263.838 23.0394 264.196 23.1008 264.554 23.2092C264.91 23.3175 265.233 23.4914 265.519 23.7327C265.806 23.974 266.039 24.2951 266.217 24.698C266.395 25.1009 266.485 25.6061 266.485 26.2114C266.485 26.8168 266.395 27.3219 266.217 27.7248Z" fill="url(#paint1_linear_900_1127)"/>
<path d="M55.2998 44.5688V39.5337H57.0013C57.3961 39.5337 57.7192 39.6053 57.9707 39.7464C58.2223 39.8875 58.4105 40.0797 58.5311 40.3211C58.6518 40.5603 58.7131 40.8303 58.7131 41.1268C58.7131 41.4234 58.6538 41.6934 58.5311 41.9367C58.4105 42.1781 58.2243 42.3723 57.9748 42.5155C57.7253 42.6586 57.4022 42.7302 57.0095 42.7302H55.7906V42.1903H56.9891C57.2611 42.1903 57.4779 42.1433 57.6415 42.0492C57.8051 41.9551 57.9257 41.8283 57.9994 41.6688C58.073 41.5093 58.1119 41.3293 58.1119 41.1268C58.1119 40.9244 58.075 40.7444 57.9994 40.5849C57.9257 40.4274 57.8051 40.3006 57.6394 40.2106C57.4738 40.1186 57.2529 40.0736 56.9809 40.0736H55.9093V44.5688H55.2998Z" fill="white"/>
<path d="M60.7296 44.6586C60.4904 44.6586 60.2736 44.6136 60.0793 44.5216C59.883 44.4296 59.7275 44.2987 59.615 44.1248C59.5005 43.9531 59.4432 43.7424 59.4432 43.497C59.4432 43.2802 59.4862 43.1043 59.5721 42.9693C59.6559 42.8344 59.7705 42.728 59.9136 42.6503C60.0568 42.5746 60.2143 42.5153 60.3881 42.4785C60.5599 42.4396 60.7337 42.409 60.9096 42.3865C61.1387 42.3558 61.3248 42.3333 61.4679 42.319C61.6111 42.3026 61.7154 42.2781 61.7829 42.2392C61.8504 42.2024 61.8831 42.1349 61.8831 42.0429V42.0224C61.8831 41.7811 61.8176 41.5909 61.6847 41.4559C61.5538 41.323 61.3534 41.2555 61.0875 41.2555C60.8094 41.2555 60.5926 41.3148 60.4351 41.4375C60.2777 41.5602 60.1672 41.6891 60.1038 41.8261L59.5537 41.6298C59.6518 41.4007 59.7827 41.2208 59.9484 41.0919C60.112 40.9631 60.294 40.8731 60.4903 40.8199C60.6867 40.7688 60.8789 40.7422 61.0691 40.7422C61.1898 40.7422 61.3289 40.7565 61.4884 40.7852C61.6458 40.8138 61.7992 40.8731 61.9485 40.961C62.0978 41.049 62.2205 41.1819 62.3187 41.3619C62.4169 41.5418 62.466 41.7791 62.466 42.0797V44.5687H61.8872V44.0574H61.8565C61.8176 44.1392 61.7522 44.2271 61.6602 44.3212C61.5681 44.4152 61.4454 44.493 61.2941 44.5584C61.1346 44.6239 60.9485 44.6586 60.7296 44.6586ZM60.8176 44.1371C61.0466 44.1371 61.2409 44.0921 61.3984 44.0021C61.5559 43.9122 61.6765 43.7956 61.7583 43.6545C61.8381 43.5113 61.881 43.362 61.881 43.2045V42.6728C61.8565 42.7035 61.8033 42.7301 61.7195 42.7526C61.6377 42.7771 61.5416 42.7955 61.4332 42.8139C61.3268 42.8323 61.2225 42.8467 61.1202 42.8589C61.02 42.8712 60.9382 42.8814 60.8769 42.8896C60.7255 42.91 60.5844 42.9407 60.4556 42.9837C60.3267 43.0266 60.2204 43.0921 60.1406 43.1779C60.0609 43.2638 60.022 43.3804 60.022 43.5277C60.022 43.7301 60.0977 43.8815 60.247 43.9837C60.3963 44.084 60.5865 44.1371 60.8176 44.1371Z" fill="white"/>
<path d="M63.2861 43.6054H63.9058C63.9201 43.7751 63.9978 43.906 64.139 43.994C64.2801 44.0819 64.4641 44.1269 64.6932 44.1269C64.9263 44.1269 65.1247 44.0799 65.2904 43.9837C65.456 43.8876 65.5378 43.7322 65.5378 43.5174C65.5378 43.3907 65.5071 43.2802 65.4437 43.1861C65.3803 43.0921 65.2945 43.0184 65.1799 42.9673C65.0674 42.9141 64.9345 42.8896 64.7791 42.8896H64.1308V42.3681H64.7791C65.0102 42.3681 65.182 42.3149 65.2924 42.2106C65.4028 42.1043 65.4581 41.9734 65.4581 41.8159C65.4581 41.6482 65.3988 41.5112 65.2781 41.4089C65.1595 41.3066 64.9897 41.2555 64.7709 41.2555C64.55 41.2555 64.3639 41.3046 64.2167 41.4028C64.0694 41.503 63.9917 41.6298 63.9835 41.7852H63.3741C63.3802 41.5807 63.4416 41.4028 63.5602 41.2453C63.6788 41.0899 63.8404 40.9651 64.0428 40.8772C64.2473 40.7872 64.4784 40.7422 64.7402 40.7422C65.0061 40.7422 65.2372 40.7892 65.4315 40.8813C65.6278 40.9733 65.7791 41.098 65.8875 41.2576C65.9939 41.415 66.0471 41.595 66.0471 41.7954C66.0471 42.0081 65.9878 42.182 65.8671 42.3108C65.7464 42.4417 65.5971 42.5358 65.4172 42.591V42.6298C65.5603 42.6401 65.6851 42.6851 65.7894 42.7669C65.8957 42.8487 65.9775 42.955 66.0368 43.0839C66.0961 43.2127 66.1248 43.3579 66.1248 43.5154C66.1248 43.7445 66.0634 43.9449 65.9407 44.1146C65.818 44.2844 65.6483 44.4153 65.4356 44.5073C65.2208 44.5993 64.9754 44.6464 64.6993 44.6464C64.4314 44.6464 64.1921 44.6034 63.9815 44.5155C63.7708 44.4275 63.6031 44.3048 63.4784 44.1494C63.3577 43.994 63.2923 43.8119 63.2861 43.6054Z" fill="white"/>
<path d="M66.9448 44.5684V40.791H68.4889C68.8959 40.791 69.219 40.8831 69.4583 41.0671C69.6976 41.2512 69.8182 41.4925 69.8182 41.7952C69.8182 42.0242 69.7507 42.2022 69.6137 42.329C69.4767 42.4537 69.3029 42.5396 69.0902 42.5826C69.2292 42.603 69.3642 42.6501 69.4971 42.7298C69.628 42.8075 69.7385 42.918 69.8244 43.0529C69.9103 43.1879 69.9553 43.3577 69.9553 43.556C69.9553 43.7503 69.9062 43.9221 69.808 44.0735C69.7098 44.2269 69.5687 44.3475 69.3867 44.4355C69.2026 44.5234 68.9838 44.5684 68.7282 44.5684H66.9448ZM67.497 42.376H68.4909C68.6464 42.376 68.7793 42.3535 68.8918 42.3106C69.0043 42.2676 69.0902 42.2042 69.1474 42.1244C69.2067 42.0426 69.2374 41.9465 69.2374 41.8341C69.2374 41.6766 69.172 41.5498 69.039 41.4598C68.9061 41.3677 68.7241 41.3228 68.4909 41.3228H67.497V42.376ZM67.497 44.0387H68.7261C68.9266 44.0387 69.082 43.9917 69.1965 43.8955C69.309 43.7994 69.3663 43.6706 69.3663 43.507C69.3663 43.3127 69.309 43.1593 69.1965 43.0468C69.082 42.9343 68.9266 42.8791 68.7261 42.8791H67.497V44.0387Z" fill="white"/>
<path d="M71.4093 43.7139L73.2295 40.7935H73.8982V44.5708H73.3174V41.6504L71.5075 44.5708H70.8285V40.7935H71.4093V43.7139Z" fill="white"/>
<path d="M74.9617 44.5684V40.791H76.5058C76.9127 40.791 77.2359 40.8831 77.4751 41.0671C77.7144 41.2512 77.8351 41.4925 77.8351 41.7952C77.8351 42.0242 77.7676 42.2022 77.6306 42.329C77.4936 42.4537 77.3197 42.5396 77.107 42.5826C77.2461 42.603 77.3811 42.6501 77.514 42.7298C77.6449 42.8075 77.7553 42.918 77.8412 43.0529C77.9271 43.19 77.9721 43.3577 77.9721 43.556C77.9721 43.7503 77.923 43.9221 77.8249 44.0735C77.7267 44.2269 77.5856 44.3475 77.4036 44.4355C77.2195 44.5234 77.0007 44.5684 76.745 44.5684H74.9617ZM75.5118 42.376H76.5058C76.6612 42.376 76.7941 42.3535 76.9066 42.3106C77.0191 42.2676 77.105 42.2042 77.1622 42.1244C77.2215 42.0426 77.2522 41.9465 77.2522 41.8341C77.2522 41.6766 77.1868 41.5498 77.0539 41.4598C76.9209 41.3677 76.7389 41.3228 76.5058 41.3228H75.5118V42.376ZM75.5118 44.0387H76.7409C76.9414 44.0387 77.0968 43.9917 77.2113 43.8955C77.3238 43.7994 77.3811 43.6706 77.3811 43.507C77.3811 43.3127 77.3238 43.1593 77.2113 43.0468C77.0968 42.9343 76.9414 42.8791 76.7409 42.8791H75.5118V44.0387Z" fill="white"/>
<path d="M79.956 44.6586C79.7167 44.6586 79.4999 44.6136 79.3056 44.5216C79.1093 44.4296 78.9538 44.2987 78.8414 44.1248C78.7268 43.9531 78.6696 43.7424 78.6696 43.497C78.6696 43.2802 78.7125 43.1043 78.7984 42.9693C78.8823 42.8344 78.9968 42.728 79.1399 42.6503C79.2831 42.5746 79.4406 42.5153 79.6144 42.4785C79.7862 42.4396 79.96 42.409 80.1359 42.3865C80.365 42.3558 80.5511 42.3333 80.6942 42.319C80.8374 42.3026 80.9417 42.2781 81.0092 42.2392C81.0767 42.2024 81.1094 42.1349 81.1094 42.0429V42.0224C81.1094 41.7811 81.044 41.5909 80.911 41.4559C80.7801 41.323 80.5797 41.2555 80.3139 41.2555C80.0357 41.2555 79.8189 41.3148 79.6615 41.4375C79.504 41.5602 79.3935 41.6891 79.3301 41.8261L78.78 41.6298C78.8782 41.4007 79.0091 41.2208 79.1747 41.0919C79.3383 40.9631 79.5203 40.8731 79.7167 40.8199C79.913 40.7688 80.1052 40.7422 80.2954 40.7422C80.4161 40.7422 80.5552 40.7565 80.7147 40.7852C80.8722 40.8138 81.0256 40.8731 81.1748 40.961C81.3241 41.049 81.4468 41.1819 81.545 41.3619C81.6432 41.5418 81.6923 41.7791 81.6923 42.0797V44.5687H81.1135V44.0574H81.0828C81.044 44.1392 80.9785 44.2271 80.8865 44.3212C80.7945 44.4152 80.6717 44.493 80.5204 44.5584C80.3629 44.6239 80.1768 44.6586 79.956 44.6586ZM80.0459 44.1371C80.275 44.1371 80.4693 44.0921 80.6268 44.0021C80.7842 43.9122 80.9049 43.7956 80.9867 43.6545C81.0665 43.5113 81.1094 43.362 81.1094 43.2045V42.6728C81.0849 42.7035 81.0317 42.7301 80.9478 42.7526C80.864 42.7751 80.7699 42.7955 80.6615 42.8139C80.5552 42.8323 80.4509 42.8467 80.3486 42.8589C80.2484 42.8712 80.1666 42.8814 80.1052 42.8896C79.9539 42.91 79.8128 42.9407 79.6839 42.9837C79.5551 43.0266 79.4488 43.0921 79.369 43.1779C79.2892 43.2638 79.2504 43.3804 79.2504 43.5277C79.2504 43.7301 79.326 43.8815 79.4753 43.9837C79.6226 44.084 79.8148 44.1371 80.0459 44.1371Z" fill="white"/>
<path d="M83.0543 40.7912V44.5686H82.4735V40.7912H83.0543ZM84.5595 42.4437V42.9856H82.5635V42.4437H84.5595ZM85.7212 44.6483C85.3796 44.6483 85.0811 44.5685 84.8254 44.4049C84.5698 44.2413 84.3694 44.0164 84.2262 43.7239C84.083 43.4315 84.0114 43.0899 84.0114 42.7013C84.0114 42.3087 84.083 41.9651 84.2262 41.6706C84.3694 41.3781 84.5698 41.1491 84.8254 40.9875C85.0811 40.826 85.3796 40.7441 85.7212 40.7441C86.0627 40.7441 86.3613 40.826 86.6169 40.9875C86.8726 41.1491 87.073 41.3781 87.2162 41.6706C87.3593 41.9651 87.4309 42.3087 87.4309 42.7013C87.4309 43.092 87.3593 43.4335 87.2162 43.7239C87.073 44.0164 86.8726 44.2413 86.6169 44.4049C86.3613 44.5685 86.0627 44.6483 85.7212 44.6483ZM85.7212 44.1268C85.9789 44.1268 86.1936 44.0614 86.3613 43.9284C86.529 43.7955 86.6517 43.6216 86.7335 43.4049C86.8133 43.1881 86.8542 42.9529 86.8542 42.7013C86.8542 42.4498 86.8133 42.2146 86.7335 41.9958C86.6538 41.7769 86.529 41.6011 86.3613 41.4661C86.1936 41.3311 85.9809 41.2636 85.7212 41.2636C85.4635 41.2636 85.2488 41.3311 85.0811 41.4661C84.9154 41.6011 84.7906 41.7769 84.7088 41.9958C84.6291 42.2146 84.5882 42.4498 84.5882 42.7013C84.5882 42.9529 84.6291 43.1881 84.7088 43.4049C84.7886 43.6216 84.9134 43.7955 85.0811 43.9284C85.2488 44.0593 85.4615 44.1268 85.7212 44.1268Z" fill="white"/>
<path d="M88.3757 40.791H88.9565V44.0264H90.382V40.791H90.9628V44.0264H92.3903V40.791H92.9691V44.5684H88.3757V40.791ZM93.5295 44.0285L93.462 45.6523H92.8628V44.5704H92.3719V44.0285H93.5295Z" fill="white"/>
<path d="M94.957 43.7139L96.7772 40.7935H97.446V44.5708H96.8652V41.6504L95.0552 44.5708H94.3762V40.7935H94.957V43.7139Z" fill="white"/>
<path d="M100.09 44.6482C99.7263 44.6482 99.4134 44.5685 99.1496 44.4069C98.8857 44.2453 98.6833 44.0183 98.5422 43.7279C98.4011 43.4375 98.3295 43.098 98.3295 42.7115C98.3295 42.3249 98.4011 41.9834 98.5422 41.6889C98.6833 41.3924 98.8816 41.1612 99.1373 40.9956C99.3909 40.8299 99.6895 40.7461 100.031 40.7461C100.227 40.7461 100.422 40.7788 100.614 40.8443C100.806 40.9097 100.98 41.0161 101.137 41.1633C101.295 41.3106 101.42 41.5028 101.514 41.7441C101.608 41.9854 101.653 42.282 101.653 42.6337V42.8792H98.7405V42.3781H101.062C101.062 42.1654 101.019 41.9752 100.935 41.8075C100.851 41.6398 100.73 41.5089 100.575 41.4108C100.422 41.3146 100.238 41.2656 100.029 41.2656C99.7979 41.2656 99.5975 41.3228 99.4298 41.4353C99.262 41.5478 99.1332 41.6971 99.0432 41.8791C98.9532 42.0611 98.9082 42.2575 98.9082 42.464V42.7974C98.9082 43.0837 98.9573 43.325 99.0575 43.5214C99.1577 43.7177 99.2948 43.869 99.4706 43.9713C99.6465 44.0735 99.8531 44.1247 100.088 44.1247C100.24 44.1247 100.379 44.1022 100.501 44.0592C100.626 44.0163 100.733 43.9508 100.822 43.8629C100.912 43.7749 100.982 43.6665 101.031 43.5357L101.591 43.6931C101.532 43.8833 101.434 44.051 101.295 44.1942C101.156 44.3373 100.984 44.4478 100.78 44.5275C100.575 44.6073 100.346 44.6482 100.09 44.6482Z" fill="white"/>
<path d="M105.068 43.7139L106.888 40.7935H107.557V44.5708H106.976V41.6504L105.166 44.5708H104.487V40.7935H105.068V43.7139Z" fill="white"/>
<path d="M110.948 40.791V41.333H109.197V44.5684H108.616V40.791H110.948Z" fill="white"/>
<path d="M111.795 45.9859V40.7933H112.355V41.3926H112.424C112.467 41.3271 112.527 41.2433 112.602 41.141C112.678 41.0387 112.789 40.9467 112.932 40.8649C113.075 40.7831 113.269 40.7422 113.517 40.7422C113.834 40.7422 114.114 40.822 114.357 40.9815C114.598 41.139 114.789 41.366 114.926 41.6564C115.061 41.9488 115.13 42.2924 115.13 42.6892C115.13 43.09 115.063 43.4356 114.926 43.7281C114.789 44.0206 114.6 44.2476 114.359 44.4071C114.118 44.5666 113.842 44.6464 113.525 44.6464C113.283 44.6464 113.087 44.6054 112.942 44.5236C112.797 44.4439 112.684 44.3519 112.606 44.2455C112.527 44.1412 112.467 44.0553 112.424 43.9858H112.375V45.9818H111.795V45.9859ZM112.365 42.681C112.365 42.9673 112.406 43.2168 112.49 43.4336C112.574 43.6504 112.696 43.8201 112.856 43.9428C113.016 44.0655 113.214 44.1269 113.445 44.1269C113.688 44.1269 113.891 44.0635 114.052 43.9346C114.216 43.8058 114.339 43.632 114.423 43.4131C114.504 43.1943 114.547 42.9509 114.547 42.681C114.547 42.4151 114.506 42.1758 114.425 41.9611C114.345 41.7464 114.222 41.5766 114.059 41.4519C113.897 41.3271 113.69 41.2637 113.445 41.2637C113.21 41.2637 113.011 41.323 112.85 41.4416C112.69 41.5603 112.568 41.7259 112.486 41.9386C112.406 42.1513 112.365 42.3987 112.365 42.681Z" fill="white"/>
<path d="M116.251 45.9758C116.151 45.9758 116.065 45.9675 115.987 45.9532C115.911 45.9369 115.856 45.9226 115.828 45.9082L115.975 45.397C116.188 45.4522 116.363 45.4501 116.505 45.3929C116.646 45.3356 116.768 45.1679 116.871 44.8857L116.979 44.5912L115.582 40.7954H116.212L117.253 43.8058H117.292L118.335 40.7954L118.969 40.8056L117.361 45.1229C117.29 45.3152 117.2 45.4747 117.094 45.6015C116.987 45.7283 116.862 45.8224 116.723 45.8858C116.584 45.9492 116.425 45.9758 116.251 45.9758Z" fill="white"/>
<path d="M119.736 40.791H120.317V44.0264H121.742V40.791H122.323V44.0264H123.75V40.791H124.329V44.5684H119.736V40.791Z" fill="white"/>
<path d="M125.391 44.5684V40.791H125.971V42.4333H126.356L127.714 40.791H128.46L126.937 42.6091L128.481 44.5664H127.734L126.495 42.9732H125.973V44.5664H125.391V44.5684Z" fill="white"/>
<path d="M129.689 43.7139L131.51 40.7935H132.178V44.5708H131.598V41.6504L129.788 44.5708H129.109V40.7935H129.689V43.7139Z" fill="white"/>
<path d="M134.786 45.6503V44.0264H135.101C135.177 43.9467 135.244 43.8608 135.299 43.7667C135.355 43.6726 135.404 43.5622 135.447 43.4333C135.487 43.3045 135.524 43.147 135.553 42.9609C135.584 42.7748 135.608 42.5498 135.631 42.286L135.759 40.791H138.158V44.0264H138.739V45.6503H138.158V44.5684H135.365V45.6503H134.786ZM135.759 44.0285H137.578V41.335H136.299L136.201 42.2881C136.16 42.6828 136.109 43.0284 136.05 43.3229C135.991 43.6174 135.892 43.8526 135.759 44.0285Z" fill="white"/>
<path d="M139.171 44.5684V44.0264H139.308C139.422 44.0264 139.516 44.0039 139.59 43.9589C139.666 43.9139 139.727 43.8342 139.774 43.7197C139.821 43.6051 139.856 43.4476 139.883 43.2431C139.909 43.0386 139.925 42.7789 139.938 42.4639L140.005 40.791H142.523V44.5684H141.942V41.333H140.555L140.496 42.6807C140.484 42.9895 140.455 43.2636 140.414 43.4988C140.371 43.734 140.308 43.9303 140.224 44.0898C140.14 44.2473 140.028 44.368 139.889 44.4498C139.75 44.5295 139.576 44.5704 139.365 44.5704H139.171V44.5684Z" fill="white"/>
<path d="M143.341 44.5684L144.412 42.6889H145.042L143.971 44.5684H143.341ZM145.858 44.5684V41.3228H144.856C144.629 41.3228 144.451 41.3759 144.322 41.4802C144.194 41.5866 144.128 41.7298 144.128 41.9118C144.128 42.0938 144.188 42.2349 144.304 42.3371C144.421 42.4394 144.582 42.4905 144.787 42.4905H146.006V43.0325H144.787C144.531 43.0325 144.31 42.9875 144.126 42.8975C143.94 42.8075 143.799 42.6787 143.699 42.511C143.599 42.3433 143.549 42.1429 143.549 41.9118C143.549 41.6807 143.603 41.4802 143.707 41.3125C143.813 41.1448 143.963 41.016 144.159 40.926C144.355 40.834 144.588 40.791 144.86 40.791H146.413V44.5684H145.858Z" fill="white"/>
<path d="M149.016 45.6503V44.0264H149.331C149.407 43.9467 149.474 43.8608 149.529 43.7667C149.585 43.6726 149.634 43.5622 149.677 43.4333C149.718 43.3045 149.754 43.147 149.783 42.9609C149.814 42.7748 149.838 42.5498 149.861 42.286L149.99 40.791H152.389V44.0264H152.969V45.6503H152.389V44.5684H149.595V45.6503H149.016ZM149.99 44.0285H151.808V41.335H150.53L150.431 42.2881C150.39 42.6828 150.339 43.0284 150.28 43.3229C150.219 43.6174 150.123 43.8526 149.99 44.0285Z" fill="white"/>
<path d="M155.321 44.6482C154.957 44.6482 154.644 44.5685 154.38 44.4069C154.117 44.2453 153.914 44.0183 153.773 43.7279C153.632 43.4375 153.56 43.098 153.56 42.7115C153.56 42.3249 153.632 41.9834 153.773 41.6889C153.914 41.3924 154.112 41.1612 154.368 40.9956C154.622 40.8299 154.92 40.7461 155.262 40.7461C155.458 40.7461 155.652 40.7788 155.845 40.8443C156.037 40.9097 156.211 41.0161 156.368 41.1633C156.526 41.3106 156.65 41.5028 156.745 41.7441C156.839 41.9854 156.884 42.282 156.884 42.6337V42.8792H153.971V42.3781H156.293C156.293 42.1654 156.25 41.9752 156.166 41.8075C156.082 41.6398 155.961 41.5089 155.806 41.4108C155.652 41.3146 155.468 41.2656 155.26 41.2656C155.029 41.2656 154.828 41.3228 154.661 41.4353C154.493 41.5478 154.364 41.6971 154.274 41.8791C154.184 42.0611 154.139 42.2575 154.139 42.464V42.7974C154.139 43.0837 154.188 43.325 154.288 43.5214C154.389 43.7177 154.526 43.869 154.701 43.9713C154.877 44.0735 155.084 44.1247 155.319 44.1247C155.47 44.1247 155.61 44.1022 155.732 44.0592C155.857 44.0163 155.963 43.9508 156.053 43.8629C156.143 43.7749 156.213 43.6665 156.262 43.5357L156.822 43.6931C156.763 43.8833 156.665 44.051 156.526 44.1942C156.387 44.3373 156.215 44.4478 156.01 44.5275C155.806 44.6073 155.577 44.6482 155.321 44.6482Z" fill="white"/>
<path d="M157.416 41.333V40.791H160.485V41.333H159.246V44.5684H158.665V41.333H157.416Z" fill="white"/>
<path d="M162.716 44.6482C162.352 44.6482 162.039 44.5685 161.776 44.4069C161.512 44.2453 161.309 44.0183 161.168 43.7279C161.027 43.4375 160.956 43.098 160.956 42.7115C160.956 42.3249 161.027 41.9834 161.168 41.6889C161.309 41.3924 161.508 41.1612 161.763 40.9956C162.017 40.8299 162.316 40.7461 162.657 40.7461C162.853 40.7461 163.048 40.7788 163.24 40.8443C163.432 40.9097 163.606 41.0161 163.764 41.1633C163.921 41.3106 164.046 41.5028 164.14 41.7441C164.234 41.9854 164.279 42.282 164.279 42.6337V42.8792H161.367V42.3781H163.688C163.688 42.1654 163.645 41.9752 163.561 41.8075C163.477 41.6398 163.357 41.5089 163.201 41.4108C163.048 41.3146 162.864 41.2656 162.655 41.2656C162.424 41.2656 162.224 41.3228 162.056 41.4353C161.888 41.5478 161.759 41.6971 161.669 41.8791C161.579 42.0611 161.534 42.2575 161.534 42.464V42.7974C161.534 43.0837 161.583 43.325 161.684 43.5214C161.784 43.7177 161.921 43.869 162.097 43.9713C162.273 44.0735 162.479 44.1247 162.714 44.1247C162.866 44.1247 163.005 44.1022 163.127 44.0592C163.252 44.0163 163.359 43.9508 163.449 43.8629C163.539 43.7749 163.608 43.6665 163.657 43.5357L164.218 43.6931C164.158 43.8833 164.06 44.051 163.921 44.1942C163.782 44.3373 163.61 44.4478 163.406 44.5275C163.201 44.6073 162.972 44.6482 162.716 44.6482Z" fill="white"/>
<path d="M165.747 43.7139L167.567 40.7935H168.236V44.5709H167.655V41.6504L165.845 44.5709H165.167V40.7935H165.747V43.7139ZM167.183 39.5337H167.725C167.725 39.7996 167.633 40.0163 167.449 40.1861C167.265 40.3538 167.015 40.4397 166.7 40.4397C166.392 40.4397 166.144 40.3558 165.962 40.1861C165.778 40.0184 165.688 39.7996 165.688 39.5337H166.23C166.23 39.6625 166.265 39.773 166.336 39.8711C166.408 39.9672 166.531 40.0163 166.702 40.0163C166.874 40.0163 166.999 39.9672 167.073 39.8711C167.146 39.773 167.183 39.6625 167.183 39.5337Z" fill="white"/>
<path d="M171.823 43.7139L173.643 40.7935H174.312V44.5708H173.731V41.6504L171.921 44.5708H171.242V40.7935H171.823V43.7139Z" fill="white"/>
<path d="M177.323 44.5684V40.791H178.867C179.274 40.791 179.597 40.8831 179.836 41.0671C180.076 41.2512 180.196 41.4925 180.196 41.7952C180.196 42.0242 180.129 42.2022 179.992 42.329C179.855 42.4537 179.681 42.5396 179.468 42.5826C179.607 42.603 179.742 42.6501 179.875 42.7298C180.006 42.8075 180.116 42.918 180.202 43.0529C180.288 43.19 180.333 43.3577 180.333 43.556C180.333 43.7503 180.284 43.9221 180.186 44.0735C180.088 44.2269 179.947 44.3475 179.765 44.4355C179.581 44.5234 179.362 44.5684 179.106 44.5684H177.323ZM177.873 42.376H178.867C179.022 42.376 179.155 42.3535 179.268 42.3106C179.38 42.2676 179.466 42.2042 179.523 42.1244C179.583 42.0426 179.613 41.9465 179.613 41.8341C179.613 41.6766 179.548 41.5498 179.415 41.4598C179.282 41.3677 179.1 41.3228 178.867 41.3228H177.873V42.376ZM177.873 44.0387H179.102C179.302 44.0387 179.458 43.9917 179.572 43.8955C179.685 43.7994 179.742 43.6706 179.742 43.507C179.742 43.3127 179.685 43.1593 179.572 43.0468C179.458 42.9343 179.302 42.8791 179.102 42.8791H177.873V44.0387Z" fill="white"/>
<path d="M180.971 43.6054H181.591C181.605 43.7751 181.683 43.906 181.824 43.994C181.965 44.0819 182.149 44.1269 182.378 44.1269C182.611 44.1269 182.81 44.0799 182.975 43.9837C183.141 43.8876 183.223 43.7322 183.223 43.5174C183.223 43.3907 183.192 43.2802 183.129 43.1861C183.065 43.0921 182.98 43.0184 182.865 42.9673C182.753 42.9141 182.62 42.8896 182.464 42.8896H181.816V42.3681H182.464C182.695 42.3681 182.867 42.3149 182.977 42.2106C183.088 42.1043 183.143 41.9734 183.143 41.8159C183.143 41.6482 183.084 41.5112 182.963 41.4089C182.845 41.3066 182.675 41.2555 182.456 41.2555C182.235 41.2555 182.049 41.3046 181.902 41.4028C181.754 41.503 181.677 41.6298 181.669 41.7852H181.059C181.065 41.5807 181.127 41.4028 181.245 41.2453C181.364 41.0899 181.525 40.9651 181.728 40.8772C181.932 40.7872 182.166 40.7422 182.425 40.7422C182.691 40.7422 182.922 40.7892 183.117 40.8813C183.313 40.9733 183.464 41.098 183.573 41.2576C183.679 41.415 183.732 41.595 183.732 41.7954C183.732 42.0081 183.673 42.182 183.552 42.3108C183.431 42.4417 183.282 42.5358 183.102 42.591V42.6298C183.245 42.6401 183.37 42.6851 183.474 42.7669C183.581 42.8487 183.663 42.955 183.722 43.0839C183.781 43.2148 183.81 43.3579 183.81 43.5154C183.81 43.7445 183.749 43.9449 183.626 44.1146C183.503 44.2844 183.333 44.4153 183.121 44.5073C182.906 44.5993 182.66 44.6464 182.384 44.6464C182.116 44.6464 181.877 44.6034 181.667 44.5155C181.456 44.4275 181.288 44.3048 181.163 44.1494C181.043 43.994 180.977 43.8119 180.971 43.6054Z" fill="white"/>
<path d="M184.63 45.9859V40.7933H185.19V41.3926H185.26C185.303 41.3271 185.362 41.2433 185.438 41.141C185.513 41.0387 185.624 40.9467 185.767 40.8649C185.91 40.7831 186.104 40.7422 186.352 40.7422C186.669 40.7422 186.949 40.822 187.192 40.9815C187.434 41.139 187.624 41.366 187.761 41.6564C187.896 41.9488 187.966 42.2924 187.966 42.6892C187.966 43.09 187.898 43.4356 187.761 43.7281C187.624 44.0206 187.436 44.2476 187.194 44.4071C186.953 44.5666 186.677 44.6464 186.36 44.6464C186.119 44.6464 185.922 44.6054 185.777 44.5236C185.632 44.4439 185.52 44.3519 185.442 44.2455C185.362 44.1412 185.303 44.0553 185.26 43.9858H185.211V45.9818H184.63V45.9859ZM185.2 42.681C185.2 42.9673 185.241 43.2168 185.325 43.4336C185.409 43.6504 185.532 43.8201 185.691 43.9428C185.851 44.0655 186.049 44.1269 186.28 44.1269C186.524 44.1269 186.726 44.0635 186.888 43.9346C187.051 43.8058 187.174 43.632 187.258 43.4131C187.34 43.1943 187.383 42.9509 187.383 42.681C187.383 42.4151 187.342 42.1758 187.26 41.9611C187.18 41.7464 187.057 41.5766 186.894 41.4519C186.732 41.3271 186.526 41.2637 186.28 41.2637C186.045 41.2637 185.847 41.323 185.685 41.4416C185.526 41.5603 185.403 41.7259 185.321 41.9386C185.241 42.1513 185.2 42.3987 185.2 42.681Z" fill="white"/>
<path d="M190.383 44.6483C190.044 44.6483 189.743 44.5685 189.487 44.4049C189.232 44.2413 189.031 44.0164 188.888 43.7239C188.745 43.4315 188.673 43.0899 188.673 42.7013C188.673 42.3087 188.745 41.9651 188.888 41.6706C189.031 41.3781 189.232 41.1491 189.487 40.9875C189.743 40.826 190.044 40.7441 190.383 40.7441C190.725 40.7441 191.023 40.826 191.279 40.9875C191.534 41.1491 191.737 41.3781 191.878 41.6706C192.021 41.9651 192.093 42.3087 192.093 42.7013C192.093 43.092 192.021 43.4335 191.878 43.7239C191.735 44.0164 191.534 44.2413 191.279 44.4049C191.023 44.5665 190.725 44.6483 190.383 44.6483ZM190.383 44.1268C190.643 44.1268 190.855 44.0614 191.023 43.9284C191.191 43.7955 191.314 43.6216 191.395 43.4049C191.475 43.1881 191.516 42.9529 191.516 42.7013C191.516 42.4498 191.477 42.2146 191.395 41.9958C191.314 41.7769 191.191 41.6011 191.023 41.4661C190.855 41.3311 190.643 41.2636 190.383 41.2636C190.125 41.2636 189.911 41.3311 189.743 41.4661C189.577 41.6011 189.453 41.7769 189.371 41.9958C189.291 42.2146 189.25 42.4498 189.25 42.7013C189.25 42.9529 189.291 43.1881 189.371 43.4049C189.45 43.6216 189.575 43.7955 189.743 43.9284C189.911 44.0593 190.125 44.1268 190.383 44.1268Z" fill="white"/>
<path d="M194.514 44.6483C194.16 44.6483 193.856 44.5645 193.6 44.3988C193.344 44.2311 193.148 44 193.011 43.7075C192.874 43.413 192.804 43.0777 192.804 42.7013C192.804 42.3169 192.876 41.9794 193.017 41.6849C193.158 41.3904 193.357 41.1613 193.612 40.9936C193.866 40.828 194.164 40.7441 194.506 40.7441C194.772 40.7441 195.011 40.7932 195.224 40.8914C195.437 40.9896 195.61 41.1266 195.747 41.3045C195.882 41.4824 195.968 41.689 196.001 41.9242H195.42C195.375 41.7524 195.277 41.599 195.126 41.4661C194.974 41.3331 194.77 41.2657 194.514 41.2657C194.289 41.2657 194.091 41.325 193.921 41.4415C193.751 41.5581 193.62 41.7238 193.526 41.9365C193.432 42.1492 193.385 42.3966 193.385 42.6829C193.385 42.9754 193.432 43.229 193.524 43.4458C193.618 43.6626 193.749 43.8303 193.919 43.9489C194.089 44.0675 194.287 44.1288 194.516 44.1288C194.668 44.1288 194.805 44.1023 194.927 44.0511C195.05 44 195.154 43.9243 195.24 43.8262C195.324 43.728 195.385 43.6094 195.422 43.4703H196.003C195.97 43.6932 195.889 43.8937 195.76 44.0716C195.631 44.2495 195.461 44.3906 195.252 44.4949C195.038 44.5951 194.794 44.6483 194.514 44.6483Z" fill="white"/>
<path d="M196.51 44.5684V44.0264H196.647C196.762 44.0264 196.856 44.0039 196.929 43.9589C197.005 43.9139 197.067 43.8342 197.114 43.7197C197.161 43.6051 197.195 43.4476 197.222 43.2431C197.249 43.0386 197.265 42.7789 197.277 42.4639L197.345 40.791H199.862V44.5684H199.281V41.333H197.895L197.835 42.6807C197.823 42.9895 197.795 43.2636 197.754 43.4988C197.711 43.734 197.647 43.9303 197.563 44.0898C197.48 44.2473 197.367 44.368 197.228 44.4498C197.089 44.5295 196.915 44.5704 196.705 44.5704H196.51V44.5684Z" fill="white"/>
<path d="M201.429 42.1592H202.511C202.952 42.1592 203.292 42.2717 203.525 42.4967C203.76 42.7216 203.877 43.0059 203.877 43.3495C203.877 43.5765 203.823 43.781 203.719 43.9671C203.615 44.1512 203.462 44.2984 203.257 44.4068C203.055 44.5152 202.805 44.5704 202.511 44.5704H200.926V40.7931H201.506V44.0285H202.511C202.74 44.0285 202.928 43.9692 203.075 43.8465C203.222 43.7258 203.296 43.5704 203.296 43.3802C203.296 43.1797 203.222 43.0161 203.075 42.8914C202.928 42.7646 202.74 42.7012 202.511 42.7012H201.429V42.1592ZM204.478 44.5684V40.791H205.059V44.5684H204.478Z" fill="white"/>
<path d="M206.554 40.791L207.458 42.3351L208.364 40.791H209.032L207.814 42.6787L209.032 44.5664H208.364L207.458 43.102L206.554 44.5664H205.885L207.086 42.6787L205.885 40.791H206.554Z" fill="white"/>
<path d="M35.6521 22.1009C29.5617 21.8514 24.8088 16.6936 25.0583 10.6032C25.3078 4.51276 30.4657 -0.240115 36.5561 0.0093912C42.6465 0.258898 47.3994 5.41672 47.1499 11.5071C46.9024 17.5975 41.7446 22.3504 35.6521 22.1009ZM36.2964 6.34931C33.7011 6.24296 31.5026 8.26763 31.3962 10.8629C31.2899 13.4582 33.3146 15.6567 35.9098 15.761C38.5051 15.8674 40.7036 13.8427 40.8079 11.2474C40.9184 8.65212 38.8916 6.45565 36.2964 6.34931Z" fill="url(#paint2_linear_900_1127)"/>
<path d="M10.7118 10.6725L0.134333 27.3751C-0.219475 27.9355 0.165013 28.6697 0.827636 28.6963L20.5816 29.5041C21.2442 29.5307 21.688 28.8313 21.3792 28.2443L12.2027 10.7318C11.8939 10.1469 11.0656 10.1122 10.7118 10.6725Z" fill="#76C591"/>
<path d="M37.7117 11.1207C37.6749 12.0083 36.9243 12.6995 36.0367 12.6627C35.1491 12.6259 34.4599 11.8753 34.4947 10.9878C34.5315 10.1002 35.28 9.40893 36.1676 9.44574C37.0572 9.48255 37.7485 10.2331 37.7117 11.1207Z" fill="#76C591"/>
<path d="M19.3218 53.9928L8.50102 42.2496C6.40681 39.9755 6.54997 36.4333 8.82416 34.3391L20.5673 23.5203C22.8415 21.4261 26.3816 21.5693 28.4779 23.8434L39.2967 35.5866C41.3909 37.8608 41.2477 41.4009 38.9735 43.4972L27.2304 54.318C24.9582 56.4102 21.416 56.265 19.3218 53.9928ZM14.4626 39.3558L22.6922 48.2889C23.1278 48.7614 23.8641 48.792 24.3365 48.3564L33.2696 40.1268C33.7421 39.6912 33.7727 38.955 33.3371 38.4825L25.1075 29.5494C24.6719 29.0769 23.9356 29.0463 23.4632 29.4819L14.5301 37.7115C14.0577 38.1451 14.027 38.8813 14.4626 39.3558Z" fill="url(#paint3_linear_900_1127)"/>
<path d="M36.1042 11.0552L23.9009 38.9181" stroke="#76C591" stroke-width="0.9073" stroke-miterlimit="10"/>
<path d="M23.9009 40.4541C24.7491 40.4541 25.4368 39.7665 25.4368 38.9182C25.4368 38.07 24.7491 37.3823 23.9009 37.3823C23.0526 37.3823 22.365 38.07 22.365 38.9182C22.365 39.7665 23.0526 40.4541 23.9009 40.4541Z" fill="#82C2EB"/>
<defs>
<linearGradient id="paint0_linear_900_1127" x1="247.412" y1="1.0835" x2="247.412" y2="25.1125" gradientUnits="userSpaceOnUse">
<stop offset="0.00035903" stop-color="#FEEB8A"/>
<stop offset="0.2675" stop-color="#F8C3A8"/>
<stop offset="0.5391" stop-color="#F59BB6"/>
<stop offset="0.6841" stop-color="#F497B5"/>
<stop offset="0.8639" stop-color="#F28BB1"/>
<stop offset="0.9989" stop-color="#EF7FAD"/>
</linearGradient>
<linearGradient id="paint1_linear_900_1127" x1="261.807" y1="1.08332" x2="261.807" y2="25.1123" gradientUnits="userSpaceOnUse">
<stop offset="0.00035903" stop-color="#FEEB8A"/>
<stop offset="0.2675" stop-color="#F8C3A8"/>
<stop offset="0.5391" stop-color="#F59BB6"/>
<stop offset="0.6841" stop-color="#F497B5"/>
<stop offset="0.8639" stop-color="#F28BB1"/>
<stop offset="0.9989" stop-color="#EF7FAD"/>
</linearGradient>
<linearGradient id="paint2_linear_900_1127" x1="25.1053" y1="14.2615" x2="46.342" y2="8.09688" gradientUnits="userSpaceOnUse">
<stop stop-color="#B1DCF5"/>
<stop offset="0.9985" stop-color="#82C2EB"/>
</linearGradient>
<linearGradient id="paint3_linear_900_1127" x1="27.8488" y1="54.7568" x2="17.0156" y2="11.3345" gradientUnits="userSpaceOnUse">
<stop offset="0.00035903" stop-color="#FEEB8A"/>
<stop offset="0.2675" stop-color="#F8C3A8"/>
<stop offset="0.5391" stop-color="#F59BB6"/>
<stop offset="0.6841" stop-color="#F497B5"/>
<stop offset="0.8639" stop-color="#F28BB1"/>
<stop offset="0.9989" stop-color="#EF7FAD"/>
</linearGradient>
</defs>
</svg>
