<svg width="32" height="20" viewBox="0 0 32 20" fill="none" xmlns="http://www.w3.org/2000/svg">
<path d="M0.625 0.625H31.375V15.625H0.625V0.625Z" fill="white"/>
<path d="M5.8125 9.375C6.50286 9.375 7.0625 8.81536 7.0625 8.125C7.0625 7.43464 6.50286 6.875 5.8125 6.875C5.12214 6.875 4.5625 7.43464 4.5625 8.125C4.5625 8.81536 5.12214 9.375 5.8125 9.375Z" fill="white"/>
<path d="M26.1875 9.375C26.8779 9.375 27.4375 8.81536 27.4375 8.125C27.4375 7.43464 26.8779 6.875 26.1875 6.875C25.4971 6.875 24.9375 7.43464 24.9375 8.125C24.9375 8.81536 25.4971 9.375 26.1875 9.375Z" fill="white"/>
<path d="M0.625 15.625V19.375H31.375V15.625" fill="white"/>
<path d="M31.375 0H0.625C0.279875 0 0 0.279875 0 0.625V19.375C0 19.7201 0.279875 20 0.625 20H31.375C31.7201 20 32 19.7201 32 19.375C32 19.1887 32 1.11881 32 0.625C32 0.279875 31.7201 0 31.375 0ZM1.25 1.25H30.75V15H1.25V1.25ZM1.25 18.75V16.25H30.75V18.75H1.25Z" fill="#4FAD50"/>
<path d="M5.8125 6.25C4.77863 6.25 3.9375 7.09113 3.9375 8.125C3.9375 9.15887 4.77863 10 5.8125 10C6.84637 10 7.6875 9.15887 7.6875 8.125C7.6875 7.09113 6.84637 6.25 5.8125 6.25ZM5.8125 8.75C5.46788 8.75 5.1875 8.46962 5.1875 8.125C5.1875 7.78038 5.46788 7.5 5.8125 7.5C6.15712 7.5 6.4375 7.78038 6.4375 8.125C6.4375 8.46962 6.15712 8.75 5.8125 8.75Z" fill="#53D0A6"/>
<path d="M26.1875 6.25C25.1536 6.25 24.3125 7.09113 24.3125 8.125C24.3125 9.15887 25.1536 10 26.1875 10C27.2214 10 28.0625 9.15887 28.0625 8.125C28.0625 7.09113 27.2214 6.25 26.1875 6.25ZM26.1875 8.75C25.8429 8.75 25.5625 8.46962 25.5625 8.125C25.5625 7.78038 25.8429 7.5 26.1875 7.5C26.5321 7.5 26.8125 7.78038 26.8125 8.125C26.8125 8.46962 26.5321 8.75 26.1875 8.75Z" fill="#53D0A6"/>
<path d="M15.8125 9.86134C17.75 9.86134 19 8.81513 19 6.94958C19 5.41176 18.1625 4 15.8125 4H13.975C13.45 4 13 4.41597 13 4.90756V12.1681C13 12.6218 13.4125 13 13.875 13C14.35 13 14.75 12.6092 14.75 12.1681V9.86134H15.8125ZM14.75 5.60084H15.8125C16.9875 5.60084 17.25 6.28151 17.25 6.93697C17.25 7.84454 16.75 8.2605 15.8125 8.2605H14.75V5.60084Z" fill="#168ECD"/>
</svg>
