<svg width="141" height="20" viewBox="0 0 141 20" fill="none" xmlns="http://www.w3.org/2000/svg">
<path d="M34.8653 4H27.3838C27.8196 6.46962 30.2166 8.79397 32.8315 8.79397H38.7876C38.8603 8.57607 38.8603 8.21288 38.8603 7.99497C38.8603 5.8159 37.0444 4 34.8653 4Z" fill="url(#paint0_linear_900_2555)"/>
<path d="M28.0376 9.22998V15.2588H31.6694V12.0628H34.8654C36.6086 12.0628 38.134 10.828 38.6424 9.22998H28.0376Z" fill="#4FAD50"/>
<path d="M15.2534 4V15.1859H18.4494C18.4494 15.1859 19.2484 15.1859 19.6842 14.3869C21.8633 10.1014 22.517 8.79397 22.517 8.79397H22.9528V15.1859H26.5846V4H23.3886C23.3886 4 22.5896 4.07264 22.1538 4.799C20.3379 8.50343 19.321 10.392 19.321 10.392H18.8852V4H15.2534Z" fill="#4FAD50"/>
<path d="M0 15.2592V4.07324H3.6318C3.6318 4.07324 4.64871 4.07324 5.22979 5.67123C6.68251 9.88411 6.82779 10.4652 6.82779 10.4652C6.82779 10.4652 7.11832 9.4483 8.42577 5.67123C9.00686 4.07324 10.0238 4.07324 10.0238 4.07324H13.6556V15.2592H10.0238V9.2304H9.58795L7.55415 15.2592H5.95615L3.92236 9.2304H3.48654V15.2592H0Z" fill="#4FAD50"/>
<path d="M82.3333 9.99991C82.3333 15.487 77.8718 19.9998 72.3334 19.9998C66.8463 19.9998 62.3335 15.487 62.3335 9.99991C62.3335 4.51278 66.795 0 72.2821 0C77.8718 0 82.3333 4.51278 82.3333 9.99991Z" fill="#F9B50B"/>
<path d="M68.9485 10.0512C68.9485 9.33325 68.846 8.61531 68.7434 7.94865H62.5896C62.6409 7.58968 62.7435 7.28199 62.846 6.87174H68.3332C68.2306 6.51276 68.0768 6.15379 67.9229 5.79482H63.2563C63.4101 5.43585 63.6153 5.12816 63.8204 4.71791H67.3588C67.1537 4.35894 66.8973 3.99997 66.5896 3.64099H64.6409C64.9486 3.28202 65.2563 2.97433 65.6665 2.61536C63.9229 0.974351 61.564 0 58.9486 0C53.5128 0.153845 49 4.51278 49 9.99991C49 15.487 53.4615 19.9998 58.9999 19.9998C61.6153 19.9998 63.9229 18.9742 65.7178 17.3845C66.0768 17.0768 66.3845 16.7178 66.7434 16.3076H64.6922C64.4358 15.9999 64.1794 15.6409 63.9742 15.2819H67.4614C67.6665 14.9742 67.8716 14.6153 68.0255 14.205H63.3589C63.205 13.8973 63.0512 13.5383 62.9486 13.1281H68.4357C68.7434 12.205 68.9485 11.1794 68.9485 10.0512Z" fill="#C8191C"/>
<path d="M62.5384 12.5641L62.6923 11.641C62.641 11.641 62.5384 11.6923 62.4359 11.6923C62.0769 11.6923 62.0256 11.4872 62.0769 11.3846L62.3846 9.53847H62.9487L63.1025 8.51284H62.5897L62.6923 7.89746H61.6154C61.6154 7.89746 61 11.3846 61 11.7949C61 12.4102 61.359 12.7179 61.8718 12.7179C62.1795 12.7179 62.4359 12.6154 62.5384 12.5641Z" fill="white"/>
<path d="M62.8975 10.8718C62.8975 12.359 63.9231 12.718 64.7436 12.718C65.5128 12.718 65.8718 12.5641 65.8718 12.5641L66.0769 11.5385C66.0769 11.5385 65.5128 11.7949 64.9487 11.7949C63.7692 11.7949 63.9744 10.9231 63.9744 10.9231H66.1282C66.1282 10.9231 66.282 10.2564 66.282 9.94875C66.282 9.28209 65.9231 8.4103 64.7436 8.4103C63.718 8.35902 62.8975 9.5385 62.8975 10.8718ZM64.7436 9.33337C65.3077 9.33337 65.2051 10 65.2051 10.0513H64.0257C64.0769 10 64.1795 9.33337 64.7436 9.33337Z" fill="white"/>
<path d="M71.4616 12.5642L71.6668 11.3847C71.6668 11.3847 71.1539 11.6411 70.7437 11.6411C70.0257 11.6411 69.6668 11.077 69.6668 10.4104C69.6668 9.12834 70.2821 8.46168 71.0514 8.46168C71.5642 8.46168 72.0257 8.76937 72.0257 8.76937L72.1796 7.64117C72.1796 7.64117 71.5642 7.38477 70.9488 7.38477C69.7181 7.38477 68.5386 8.46168 68.5386 10.4617C68.5386 11.795 69.154 12.6668 70.436 12.6668C70.8975 12.7181 71.4616 12.5642 71.4616 12.5642Z" fill="white"/>
<path d="M56.7441 8.35889C56.0262 8.35889 55.4621 8.56401 55.4621 8.56401L55.3082 9.48708C55.3082 9.48708 55.7698 9.28196 56.4877 9.28196C56.8467 9.28196 57.1544 9.33324 57.1544 9.64093C57.1544 9.84605 57.1031 9.89733 57.1031 9.89733H56.6416C55.7185 9.89733 54.7441 10.2563 54.7441 11.4871C54.7441 12.4614 55.3595 12.6665 55.7698 12.6665C56.4877 12.6665 56.8467 12.205 56.898 12.205L56.8467 12.6153H57.7185L58.1287 9.69221C58.1287 8.41017 57.1031 8.35889 56.7441 8.35889ZM56.9492 10.7178C56.9492 10.8717 56.8467 11.7435 56.2313 11.7435C55.9236 11.7435 55.8211 11.4871 55.8211 11.3332C55.8211 11.0768 55.9749 10.7178 56.7954 10.7178C56.898 10.7178 56.9492 10.7178 56.9492 10.7178Z" fill="white"/>
<path d="M59.1541 12.6666C59.4105 12.6666 60.7438 12.7178 60.7438 11.2819C60.7438 9.94863 59.4618 10.205 59.4618 9.69222C59.4618 9.43581 59.6669 9.33325 60.0259 9.33325C60.1797 9.33325 60.7438 9.38453 60.7438 9.38453L60.8977 8.41018C60.8977 8.41018 60.5387 8.30762 59.8721 8.30762C59.1028 8.30762 58.2823 8.61531 58.2823 9.69222C58.2823 10.923 59.6156 10.8204 59.6156 11.2819C59.6156 11.5896 59.2567 11.6409 59.0003 11.6409C58.5387 11.6409 58.0259 11.4871 58.0259 11.4871L57.8721 12.4614C57.9746 12.564 58.2823 12.6666 59.1541 12.6666Z" fill="white"/>
<path d="M80.282 7.53857L80.0768 8.97446C80.0768 8.97446 79.6666 8.46164 79.0512 8.46164C78.0769 8.46164 77.2563 9.64112 77.2563 11.0257C77.2563 11.8975 77.6666 12.7693 78.5897 12.7693C79.205 12.7693 79.6153 12.359 79.6153 12.359L79.564 12.718H80.6409L81.4102 7.64114L80.282 7.53857ZM79.7691 10.3078C79.7691 10.8719 79.5127 11.6411 78.8974 11.6411C78.5384 11.6411 78.3333 11.3334 78.3333 10.7693C78.3333 9.89753 78.6922 9.38471 79.2051 9.38471C79.564 9.43599 79.7691 9.6924 79.7691 10.3078Z" fill="white"/>
<path d="M50.949 12.6155L51.5644 8.82061L51.6669 12.6155H52.3849L53.7695 8.82061L53.2054 12.6155H54.3336L55.2053 7.53857H53.4618L52.3849 10.6668L52.3336 7.53857H50.7951L49.9233 12.6155H50.949Z" fill="white"/>
<path d="M67.3587 12.6152C67.6664 10.8717 67.7176 9.43578 68.4869 9.69218C68.5894 9.02552 68.7433 8.71783 68.8458 8.46143H68.6407C68.1792 8.46143 67.7689 9.07681 67.7689 9.07681L67.8715 8.51271H66.8459L66.1792 12.6152H67.3587Z" fill="white"/>
<path d="M73.9233 8.35889C73.2054 8.35889 72.6413 8.56401 72.6413 8.56401L72.4874 9.48708C72.4874 9.48708 72.949 9.28196 73.6669 9.28196C74.0259 9.28196 74.3336 9.33324 74.3336 9.64093C74.3336 9.84605 74.2823 9.89733 74.2823 9.89733H73.8208C72.8977 9.89733 71.9233 10.2563 71.9233 11.4871C71.9233 12.4614 72.5387 12.6665 72.949 12.6665C73.6669 12.6665 74.0259 12.205 74.0772 12.205L74.0259 12.6153H75.0002L75.4105 9.69221C75.4105 8.41017 74.2823 8.35889 73.9233 8.35889ZM74.1797 10.7178C74.1797 10.8717 74.0772 11.7435 73.4618 11.7435C73.1541 11.7435 73.0515 11.4871 73.0515 11.3332C73.0515 11.0768 73.2054 10.7178 74.0259 10.7178C74.1284 10.7178 74.1284 10.7178 74.1797 10.7178Z" fill="white"/>
<path d="M76.2303 12.6152C76.5379 10.8717 76.5892 9.43578 77.3585 9.69218C77.461 9.02552 77.6149 8.71783 77.7174 8.46143H77.5123C77.0508 8.46143 76.6405 9.07681 76.6405 9.07681L76.7431 8.51271H75.7174L75.0508 12.6152H76.2303Z" fill="white"/>
<path d="M137.342 2.21777H134.218C133.274 2.21777 132.548 2.50832 132.112 3.45258L126.156 17.0355H130.369C130.369 17.0355 131.095 15.2196 131.24 14.7838C131.676 14.7838 135.816 14.7838 136.397 14.7838C136.543 15.2922 136.906 16.9629 136.906 16.9629H140.683L137.342 2.21777ZM132.402 11.7331C132.766 10.8614 134 7.59283 134 7.59283C134 7.66547 134.364 6.7212 134.509 6.21275L134.799 7.52019C134.799 7.52019 135.598 11.0794 135.744 11.8057H132.402V11.7331Z" fill="#3362AB"/>
<path d="M126.447 12.169C126.447 15.2197 123.686 17.2535 119.401 17.2535C117.585 17.2535 115.842 16.8904 114.897 16.4545L115.479 13.1133L115.987 13.3312C117.294 13.9123 118.166 14.1302 119.764 14.1302C120.926 14.1302 122.161 13.6944 122.161 12.6775C122.161 12.0238 121.653 11.5879 120.055 10.8616C118.529 10.1352 116.495 8.97305 116.495 6.86661C116.495 3.96117 119.328 2 123.323 2C124.849 2 126.156 2.29054 126.955 2.65372L126.374 5.8497L126.083 5.55916C125.357 5.26862 124.413 4.97807 123.033 4.97807C121.507 5.05071 120.781 5.70443 120.781 6.28552C120.781 6.93924 121.653 7.44769 123.033 8.10142C125.357 9.19095 126.447 10.4258 126.447 12.169Z" fill="#3362AB"/>
<path d="M91 2.36379L91.0726 2.07324H97.3193C98.191 2.07324 98.8447 2.36379 99.0626 3.30805L100.443 9.84528C99.0626 6.35876 95.8666 3.52596 91 2.36379Z" fill="#F9B50B"/>
<path d="M109.232 2.21814L102.912 16.9632H98.6269L94.9951 4.61513C97.61 6.28575 99.7891 8.90065 100.588 10.7165L101.024 12.2419L104.946 2.14551H109.232V2.21814Z" fill="#3362AB"/>
<path d="M110.902 2.14551H114.897L112.355 16.9632H108.36L110.902 2.14551Z" fill="#3362AB"/>
<defs>
<linearGradient id="paint0_linear_900_2555" x1="27.3709" y1="6.43134" x2="38.8345" y2="6.43134" gradientUnits="userSpaceOnUse">
<stop stop-color="#27B1E6"/>
<stop offset="1" stop-color="#148ACA"/>
</linearGradient>
</defs>
</svg>
