<svg width="16" height="16" viewBox="0 0 16 16" fill="none" xmlns="http://www.w3.org/2000/svg">
<path d="M9.40793 13.1618C0.659088 12.8004 0.66112 0.360328 9.40796 0C11.1699 0 12.8258 0.682136 14.0706 1.92078C18.2146 6.01216 15.2318 13.1779 9.40793 13.1618ZM9.40793 1.24756C6.46084 1.24756 4.06323 3.64008 4.06323 6.5809C4.36 13.6613 14.4632 13.6533 14.7526 6.56864C14.7526 3.63462 12.355 1.24756 9.40793 1.24756ZM0.625114 16C0.464554 16 0.304057 15.9387 0.181847 15.8161C-0.0615711 15.5718 -0.0604771 15.1769 0.184317 14.9339L2.99732 12.1425C3.24205 11.8996 3.63784 11.9006 3.88135 12.145C4.12477 12.3892 4.12368 12.7842 3.87888 13.0271L1.06588 15.8185C0.943952 15.9396 0.784517 16 0.625114 16Z" fill="black"/>
</svg>
